<svg xmlns="http://www.w3.org/2000/svg" viewBox="0 0 1366 1024" width="1366" height="1024">
<defs>
  <linearGradient id="roofGrad" x1="0" y1="1" x2="0" y2="0">
    <stop offset="0%" stop-color="#332720"/><stop offset="100%" stop-color="#5C4938"/>
  </linearGradient>
  <linearGradient id="wallGrad" x1="0" y1="1" x2="0" y2="0">
    <stop offset="0%" stop-color="#6E5A4E"/><stop offset="100%" stop-color="#8A7263"/>
  </linearGradient>
  <radialGradient id="sunGlow"><stop offset="0%" stop-color="#FFF3C4" stop-opacity="1"/>
    <stop offset="45%" stop-color="#FFF3C4" stop-opacity="0.45"/>
    <stop offset="100%" stop-color="#FFF3C4" stop-opacity="0"/></radialGradient>
  <radialGradient id="moonGlow"><stop offset="0%" stop-color="#F6F1DC" stop-opacity="1"/>
    <stop offset="45%" stop-color="#F6F1DC" stop-opacity="0.45"/>
    <stop offset="100%" stop-color="#F6F1DC" stop-opacity="0"/></radialGradient>
  <radialGradient id="lampGlow"><stop offset="0%" stop-color="#FFD79A" stop-opacity="1"/>
    <stop offset="45%" stop-color="#FFD79A" stop-opacity="0.45"/>
    <stop offset="100%" stop-color="#FFD79A" stop-opacity="0"/></radialGradient>
  <linearGradient id="sky_morning" x1="0" y1="1" x2="0" y2="0"><stop offset="0%" stop-color="#FFD9A0"/><stop offset="50%" stop-color="#FFF1D6"/><stop offset="100%" stop-color="#E9F0DA"/></linearGradient>
  <linearGradient id="sky_day" x1="0" y1="1" x2="0" y2="0"><stop offset="0%" stop-color="#7FB6E8"/><stop offset="50%" stop-color="#AFD6F2"/><stop offset="100%" stop-color="#DCEEF9"/></linearGradient>
  <linearGradient id="sky_evening" x1="0" y1="1" x2="0" y2="0"><stop offset="0%" stop-color="#3B3A72"/><stop offset="50%" stop-color="#8A5A86"/><stop offset="100%" stop-color="#E39A6A"/></linearGradient>
  <linearGradient id="sky_night" x1="0" y1="1" x2="0" y2="0"><stop offset="0%" stop-color="#141A38"/><stop offset="50%" stop-color="#1E2A4E"/><stop offset="100%" stop-color="#2B3A63"/></linearGradient>
</defs>
<g transform="translate(0,1024) scale(1,-1)">
<clipPath id="roof0"><polygon points="0,745 683,1024 0,1024"/></clipPath>
<g clip-path="url(#roof0)"><polygon points="0,745 683,1024 0,1024" fill="url(#roofGrad)" opacity="1"/>
<line x1="0" y1="745" x2="683" y2="1024" stroke="#241B16" stroke-width="3"/>
<line x1="0" y1="789" x2="683" y2="1068" stroke="#241B16" stroke-width="3"/>
<line x1="0" y1="833" x2="683" y2="1112" stroke="#241B16" stroke-width="3"/>
<line x1="0" y1="877" x2="683" y2="1156" stroke="#241B16" stroke-width="3"/>
<line x1="0" y1="921" x2="683" y2="1200" stroke="#241B16" stroke-width="3"/>
<line x1="0" y1="965" x2="683" y2="1244" stroke="#241B16" stroke-width="3"/>
<line x1="0" y1="1009" x2="683" y2="1288" stroke="#241B16" stroke-width="3"/>
<line x1="0" y1="1053" x2="683" y2="1332" stroke="#241B16" stroke-width="3"/></g>
<clipPath id="roof1"><polygon points="1366,745 683,1024 1366,1024"/></clipPath>
<g clip-path="url(#roof1)"><polygon points="1366,745 683,1024 1366,1024" fill="url(#roofGrad)" opacity="1"/>
<line x1="1366" y1="745" x2="683" y2="1024" stroke="#241B16" stroke-width="3"/>
<line x1="1366" y1="789" x2="683" y2="1068" stroke="#241B16" stroke-width="3"/>
<line x1="1366" y1="833" x2="683" y2="1112" stroke="#241B16" stroke-width="3"/>
<line x1="1366" y1="877" x2="683" y2="1156" stroke="#241B16" stroke-width="3"/>
<line x1="1366" y1="921" x2="683" y2="1200" stroke="#241B16" stroke-width="3"/>
<line x1="1366" y1="965" x2="683" y2="1244" stroke="#241B16" stroke-width="3"/>
<line x1="1366" y1="1009" x2="683" y2="1288" stroke="#241B16" stroke-width="3"/>
<line x1="1366" y1="1053" x2="683" y2="1332" stroke="#241B16" stroke-width="3"/></g>
<clipPath id="wallClip"><polygon points="0,300 0,745 683,1024 1366,745 1366,300"/></clipPath>
<polygon points="0,300 0,745 683,1024 1366,745 1366,300" fill="url(#wallGrad)" opacity="1"/>
<polyline points="0,741 683,1020 1366,741" fill="none" stroke="#4E3D33" stroke-width="26" stroke-linecap="round"/>
<g clip-path="url(#wallClip)"><rect x="0" y="690" width="1366" height="16" rx="0" fill="#4E3D33" opacity="0.9"/>
<rect x="0" y="620" width="1366" height="16" rx="0" fill="#4E3D33" opacity="0.45"/></g>
<rect x="0" y="284.694" width="1366" height="15.3061" rx="0" fill="#7A5A41" opacity="1"/>
<line x1="-210" y1="284.694" x2="-210" y2="300" stroke="#5A4130" stroke-width="2"/>
<line x1="0" y1="284.694" x2="0" y2="300" stroke="#5A4130" stroke-width="2"/>
<line x1="210" y1="284.694" x2="210" y2="300" stroke="#5A4130" stroke-width="2"/>
<line x1="420" y1="284.694" x2="420" y2="300" stroke="#5A4130" stroke-width="2"/>
<line x1="630" y1="284.694" x2="630" y2="300" stroke="#5A4130" stroke-width="2"/>
<line x1="840" y1="284.694" x2="840" y2="300" stroke="#5A4130" stroke-width="2"/>
<line x1="1050" y1="284.694" x2="1050" y2="300" stroke="#5A4130" stroke-width="2"/>
<line x1="1260" y1="284.694" x2="1260" y2="300" stroke="#5A4130" stroke-width="2"/>
<line x1="1470" y1="284.694" x2="1470" y2="300" stroke="#5A4130" stroke-width="2"/>
<line x1="0" y1="284.694" x2="1366" y2="284.694" stroke="#5A4130" stroke-width="3" opacity="0.8"/>
<rect x="0" y="260.204" width="1366" height="24.4898" rx="0" fill="#6E5039" opacity="1"/>
<line x1="-183" y1="260.204" x2="-183" y2="284.694" stroke="#5A4130" stroke-width="2"/>
<line x1="73" y1="260.204" x2="73" y2="284.694" stroke="#5A4130" stroke-width="2"/>
<line x1="329" y1="260.204" x2="329" y2="284.694" stroke="#5A4130" stroke-width="2"/>
<line x1="585" y1="260.204" x2="585" y2="284.694" stroke="#5A4130" stroke-width="2"/>
<line x1="841" y1="260.204" x2="841" y2="284.694" stroke="#5A4130" stroke-width="2"/>
<line x1="1097" y1="260.204" x2="1097" y2="284.694" stroke="#5A4130" stroke-width="2"/>
<line x1="1353" y1="260.204" x2="1353" y2="284.694" stroke="#5A4130" stroke-width="2"/>
<line x1="1609" y1="260.204" x2="1609" y2="284.694" stroke="#5A4130" stroke-width="2"/>
<line x1="0" y1="260.204" x2="1366" y2="260.204" stroke="#5A4130" stroke-width="3" opacity="0.8"/>
<rect x="0" y="226.531" width="1366" height="33.6735" rx="0" fill="#7A5A41" opacity="1"/>
<line x1="-156" y1="226.531" x2="-156" y2="260.204" stroke="#5A4130" stroke-width="2"/>
<line x1="146" y1="226.531" x2="146" y2="260.204" stroke="#5A4130" stroke-width="2"/>
<line x1="448" y1="226.531" x2="448" y2="260.204" stroke="#5A4130" stroke-width="2"/>
<line x1="750" y1="226.531" x2="750" y2="260.204" stroke="#5A4130" stroke-width="2"/>
<line x1="1052" y1="226.531" x2="1052" y2="260.204" stroke="#5A4130" stroke-width="2"/>
<line x1="1354" y1="226.531" x2="1354" y2="260.204" stroke="#5A4130" stroke-width="2"/>
<line x1="1656" y1="226.531" x2="1656" y2="260.204" stroke="#5A4130" stroke-width="2"/>
<line x1="0" y1="226.531" x2="1366" y2="226.531" stroke="#5A4130" stroke-width="3" opacity="0.8"/>
<rect x="0" y="183.673" width="1366" height="42.8571" rx="0" fill="#6E5039" opacity="1"/>
<line x1="-129" y1="183.673" x2="-129" y2="226.531" stroke="#5A4130" stroke-width="2"/>
<line x1="219" y1="183.673" x2="219" y2="226.531" stroke="#5A4130" stroke-width="2"/>
<line x1="567" y1="183.673" x2="567" y2="226.531" stroke="#5A4130" stroke-width="2"/>
<line x1="915" y1="183.673" x2="915" y2="226.531" stroke="#5A4130" stroke-width="2"/>
<line x1="1263" y1="183.673" x2="1263" y2="226.531" stroke="#5A4130" stroke-width="2"/>
<line x1="1611" y1="183.673" x2="1611" y2="226.531" stroke="#5A4130" stroke-width="2"/>
<line x1="0" y1="183.673" x2="1366" y2="183.673" stroke="#5A4130" stroke-width="3" opacity="0.8"/>
<rect x="0" y="131.633" width="1366" height="52.0408" rx="0" fill="#7A5A41" opacity="1"/>
<line x1="-102" y1="131.633" x2="-102" y2="183.673" stroke="#5A4130" stroke-width="2"/>
<line x1="292" y1="131.633" x2="292" y2="183.673" stroke="#5A4130" stroke-width="2"/>
<line x1="686" y1="131.633" x2="686" y2="183.673" stroke="#5A4130" stroke-width="2"/>
<line x1="1080" y1="131.633" x2="1080" y2="183.673" stroke="#5A4130" stroke-width="2"/>
<line x1="1474" y1="131.633" x2="1474" y2="183.673" stroke="#5A4130" stroke-width="2"/>
<line x1="0" y1="131.633" x2="1366" y2="131.633" stroke="#5A4130" stroke-width="3" opacity="0.8"/>
<rect x="0" y="70.4082" width="1366" height="61.2245" rx="0" fill="#6E5039" opacity="1"/>
<line x1="-75" y1="70.4082" x2="-75" y2="131.633" stroke="#5A4130" stroke-width="2"/>
<line x1="365" y1="70.4082" x2="365" y2="131.633" stroke="#5A4130" stroke-width="2"/>
<line x1="805" y1="70.4082" x2="805" y2="131.633" stroke="#5A4130" stroke-width="2"/>
<line x1="1245" y1="70.4082" x2="1245" y2="131.633" stroke="#5A4130" stroke-width="2"/>
<line x1="1685" y1="70.4082" x2="1685" y2="131.633" stroke="#5A4130" stroke-width="2"/>
<line x1="0" y1="70.4082" x2="1366" y2="70.4082" stroke="#5A4130" stroke-width="3" opacity="0.8"/>
<rect x="0" y="2.84217e-14" width="1366" height="70.4082" rx="0" fill="#7A5A41" opacity="1"/>
<line x1="-48" y1="2.84217e-14" x2="-48" y2="70.4082" stroke="#5A4130" stroke-width="2"/>
<line x1="438" y1="2.84217e-14" x2="438" y2="70.4082" stroke="#5A4130" stroke-width="2"/>
<line x1="924" y1="2.84217e-14" x2="924" y2="70.4082" stroke="#5A4130" stroke-width="2"/>
<line x1="1410" y1="2.84217e-14" x2="1410" y2="70.4082" stroke="#5A4130" stroke-width="2"/>
<line x1="0" y1="2.84217e-14" x2="1366" y2="2.84217e-14" stroke="#5A4130" stroke-width="3" opacity="0.8"/>
<rect x="0" y="286" width="1366" height="20" rx="0" fill="#6B4F32" opacity="1"/>
<g transform="translate(1012,716)">
<clipPath id="glass"><circle cx="0" cy="0" r="138"/></clipPath><g clip-path="url(#glass)"><circle cx="0" cy="0" r="138" fill="url(#sky_night)"/>
<g transform="translate(35.88,57.96)">
<circle cx="0" cy="0" r="82.8" fill="url(#moonGlow)" opacity="0.32"/>
<circle cx="0" cy="0" r="27.6" fill="#F6F1DC" opacity="1"/>
<circle cx="-8.28" cy="6.072" r="6.624" fill="#D1D1D1" opacity="0.45"/>
<circle cx="7.728" cy="8.28" r="4.692" fill="#D1D1D1" opacity="0.45"/>
<circle cx="2.76" cy="-9.384" r="5.52" fill="#D1D1D1" opacity="0.45"/>
</g>
<circle cx="-44.8352" cy="99.4656" r="2.1508" fill="#FFFBE8" opacity="0.430103"/>
<circle cx="-85.0838" cy="19.1308" r="2.49348" fill="#FFFBE8" opacity="0.74195"/>
<circle cx="-33.0525" cy="-30.1896" r="3.79062" fill="#FFFBE8" opacity="0.849338"/>
<circle cx="-5.85986" cy="-117.957" r="2.72228" fill="#FFFBE8" opacity="0.711683"/>
<circle cx="43.5428" cy="0.355672" r="2.38272" fill="#FFFBE8" opacity="0.626867"/>
<circle cx="-35.5744" cy="-15.8477" r="3.91074" fill="#FFFBE8" opacity="0.53048"/>
<circle cx="85.325" cy="65.5858" r="2.68718" fill="#FFFBE8" opacity="0.382109"/>
<circle cx="68.3098" cy="-92.1807" r="2.90896" fill="#FFFBE8" opacity="0.616037"/>
<circle cx="-84.3908" cy="80.6568" r="3.59744" fill="#FFFBE8" opacity="0.543818"/>
<circle cx="9.67888" cy="64.7938" r="2.08476" fill="#FFFBE8" opacity="0.741038"/>
<circle cx="30.0144" cy="-52.7748" r="3.00724" fill="#FFFBE8" opacity="0.852131"/>
<circle cx="-26.2422" cy="-86.2649" r="3.23682" fill="#FFFBE8" opacity="0.427367"/>
<circle cx="-10.5884" cy="-63.9868" r="3.02518" fill="#FFFBE8" opacity="0.852359"/>
<circle cx="95.0821" cy="30.9601" r="4.18192" fill="#FFFBE8" opacity="0.639578"/>
<circle cx="-112.868" cy="11.8151" r="2.96096" fill="#FFFBE8" opacity="0.870257"/>
<circle cx="115.141" cy="42.3544" r="2.6123" fill="#FFFBE8" opacity="0.913634"/></g>
<circle cx="0" cy="0" r="138" fill="none" opacity="1" stroke="#8B6742" stroke-width="26"/>
<circle cx="0" cy="0" r="128" fill="none" opacity="0.6" stroke="#6B4F32" stroke-width="4"/>
<rect x="-6" y="-131" width="12" height="262" rx="0" fill="#A9835A" opacity="1"/>
<rect x="-131" y="-6" width="262" height="12" rx="0" fill="#A9835A" opacity="1"/>
<rect x="-158.7" y="-155" width="317.4" height="22" rx="6" fill="#8B6742" opacity="1" stroke="#6B4F32" stroke-width="2"/>
</g>
<ellipse cx="700" cy="186" rx="390" ry="118" fill="#B5635A" opacity="1" stroke="#E2B08A" stroke-width="8"/>
<ellipse cx="700" cy="186" rx="273" ry="77.88" fill="#C9786C" opacity="1" stroke="#E2B08A" stroke-width="5"/>
<rect x="80" y="706" width="360" height="26" rx="4" fill="#8B6742" opacity="1" stroke="#6B4F32" stroke-width="2"/>
<polygon points="100,706 128,706 128,660" fill="#6B4F32" opacity="1"/>
<polygon points="392,706 420,706 420,660" fill="#6B4F32" opacity="1"/>
<g transform="translate(258,792)">
<g transform="translate(-74,4) rotate(3.4)">
<rect x="0" y="-34" width="74" height="68" rx="3" fill="#F4E9D2" opacity="1" stroke="#6B4F32" stroke-width="2"/>
</g>
<g transform="translate(0,4) rotate(-3.4)">
<rect x="0" y="-34" width="74" height="68" rx="3" fill="#DFD0B4" opacity="1" stroke="#6B4F32" stroke-width="2"/>
</g>
<rect x="-80" y="-44" width="160" height="18" rx="5" fill="#3F7D6E" opacity="1"/>
<rect x="-4" y="-56" width="9" height="52" rx="0" fill="#B5635A" opacity="1"/>
</g>
<rect x="92" y="442" width="232" height="24" rx="5" fill="#8B6742" opacity="1" stroke="#6B4F32" stroke-width="2"/>
<rect x="114" y="290" width="16" height="152" rx="0" fill="#6B4F32" opacity="1"/>
<rect x="290" y="290" width="16" height="152" rx="0" fill="#6B4F32" opacity="1"/>
<g transform="translate(208,466)">
<circle cx="0" cy="84" r="130" fill="url(#lampGlow)" opacity="0.3"/>
<ellipse cx="0" cy="0" rx="43" ry="11" fill="#59636B" opacity="1"/>
<rect x="-6" y="0" width="12" height="74" rx="0" fill="#59636B" opacity="1"/>
<polygon points="-62,74 62,74 40,146 -40,146" fill="#E8B15C" opacity="1" stroke="#6B4F32" stroke-width="2"/>
</g>
<rect x="630" y="300" width="172" height="92" rx="12" fill="#6B4F32" opacity="1"/>
<ellipse cx="716" cy="392" rx="88" ry="23" fill="#8B6742" opacity="1" stroke="#A9835A" stroke-width="3"/>
<ellipse cx="716" cy="392" rx="48" ry="12" fill="none" opacity="0.7" stroke="#A9835A" stroke-width="2"/>
<polygon points="887.8,688.4 1136.2,688.4 1039.6,110 584.2,110" fill="#9FB6E8" opacity="0.07"/>
<g transform="translate(406,208) rotate(3.4)">
<rect x="-42" y="-42" width="84" height="84" rx="10" fill="#D98E63" opacity="1" stroke="#8A5C3E" stroke-width="3"/>
<g transform="translate(0,0) scale(1,-1)"><text x="0" y="0" font-family="Avenir Next, Helvetica, sans-serif" font-weight="800" font-size="46" fill="#8A5C3E" text-anchor="middle" dominant-baseline="central">A</text></g>
</g>
<g transform="translate(498,204) rotate(-2.3)">
<rect x="-42" y="-42" width="84" height="84" rx="10" fill="#7FA8A0" opacity="1" stroke="#8A5C3E" stroke-width="3"/>
<g transform="translate(0,0) scale(1,-1)"><text x="0" y="0" font-family="Avenir Next, Helvetica, sans-serif" font-weight="800" font-size="46" fill="#8A5C3E" text-anchor="middle" dominant-baseline="central">B</text></g>
</g>
<g transform="translate(586,210) rotate(5.7)">
<rect x="-42" y="-42" width="84" height="84" rx="10" fill="#E0C169" opacity="1" stroke="#8A5C3E" stroke-width="3"/>
<g transform="translate(0,0) scale(1,-1)"><text x="0" y="0" font-family="Avenir Next, Helvetica, sans-serif" font-weight="800" font-size="46" fill="#8A5C3E" text-anchor="middle" dominant-baseline="central">C</text></g>
</g>
<g transform="translate(716,392)">
<ellipse cx="0" cy="8" rx="100" ry="22" fill="#000000" opacity="0.2"/>
<ellipse cx="-42" cy="14" rx="29" ry="13" fill="#D9954A" opacity="1" stroke="#C5883A" stroke-width="2"/>
<ellipse cx="42" cy="14" rx="29" ry="13" fill="#D9954A" opacity="1" stroke="#C5883A" stroke-width="2"/>
<g transform="translate(8,74) rotate(10.3)">
<polygon points="-36,0 36,0 0,-58" fill="#8D6A45" opacity="1"/>
</g>
<ellipse cx="0" cy="122" rx="98" ry="113" fill="#A98259" opacity="1" stroke="#8D6A45" stroke-width="3"/>
<ellipse cx="0" cy="108" rx="65" ry="78" fill="#E9D4B0" opacity="1"/>
<g transform="translate(-92,132) rotate(-6.9)">
<ellipse cx="0" cy="0" rx="28" ry="82" fill="#8D6A45" opacity="1"/>
</g>
<g transform="translate(92,132) rotate(6.9)">
<ellipse cx="0" cy="0" rx="28" ry="82" fill="#8D6A45" opacity="1"/>
</g>
<g transform="translate(0,214)">
<g transform="translate(-54,104) rotate(9.2)">
<polygon points="-17,0 17,0 0,64" fill="#8D6A45" opacity="1"/>
</g>
<g transform="translate(54,104) rotate(-9.2)">
<polygon points="-17,0 17,0 0,64" fill="#8D6A45" opacity="1"/>
</g>
<circle cx="0" cy="42" r="88" fill="#A98259" opacity="1" stroke="#8D6A45" stroke-width="3"/>
<ellipse cx="0" cy="46" rx="74" ry="59" fill="#F0DCBB" opacity="1"/>
<circle cx="-37" cy="50" r="30" fill="#FFFCF4" opacity="1" stroke="#8D6A45" stroke-width="3"/>
<circle cx="-39" cy="49" r="15" fill="#2E2419" opacity="1"/>
<circle cx="-33" cy="56" r="5" fill="#FFFFFF" opacity="0.9"/>
<circle cx="37" cy="50" r="30" fill="#FFFCF4" opacity="1" stroke="#8D6A45" stroke-width="3"/>
<circle cx="39" cy="49" r="15" fill="#2E2419" opacity="1"/>
<circle cx="45" cy="56" r="5" fill="#FFFFFF" opacity="0.9"/>
<polygon points="-16,8 16,8 0,-20" fill="#C5883A" opacity="1"/>
<polygon points="-22,24 22,24 0,-2" fill="#E0A24C" opacity="1"/>
</g>
</g>
<rect x="0" y="0" width="1366" height="1024" rx="0" fill="#5C6BA8" opacity="0.22"/>
</g>
</svg>
